<svg width="1920" height="1080" viewBox="0 0 1920 1080" fill="none" xmlns="http://www.w3.org/2000/svg">
<g clip-path="url(#clip0_1_5)">
<rect width="1920" height="1080" fill="white"/>
<path d="M554.5 -10L-2 386V923.5C531.763 972.134 803.471 873.806 1240 479.5L1935 85.5V-10H554.5Z" fill="#1E1E2A" stroke="black"/>
<path d="M588 0.5C523.766 137.469 187.802 384.318 -1 405.5V0.5H588Z" fill="#D9D9D9"/>
<path d="M588 0.5C523.766 137.469 187.802 384.318 -1 405.5V0.5H588Z" fill="#FEAE49"/>
<path d="M134 -530H-57V-702.5H134V-530Z" fill="#D9D9D9"/>
<path d="M134 -530H-57V-702.5H134V-530Z" fill="#FEAE49"/>
<path d="M588 0.5C523.766 137.469 187.802 384.318 -1 405.5V0.5H588Z" stroke="black"/>
<path d="M134 -530H-57V-702.5H134V-530Z" stroke="black"/>
<path d="M1271.01 625.004C1203.42 499.248 1254.51 421.504 1254.51 421.504C1263.09 360.943 1464.69 177.003 1704.01 125.004C1943.32 73.0063 1915.61 61.4949 1920.01 78.0045V1084H1571C1571 1084 1327.15 729.456 1271.01 625.004Z" fill="#57BEE6"/>
</g>
<defs>
<clipPath id="clip0_1_5">
<rect width="1560" height="760" fill="white"/>
</clipPath>
</defs>
</svg>
